<svg width="1177" height="1178" viewBox="0 0 1177 1178" fill="none" xmlns="http://www.w3.org/2000/svg">
<path d="M328.448 939.237C326.676 914.447 326.308 889.578 327.348 864.747C328.858 826.667 333.968 789.147 347.348 753.167C356.488 728.507 369.348 706.167 389.348 688.477C390.094 687.681 390.763 686.817 391.348 685.897C386.048 679.897 380.678 674.077 375.568 668.027C357.168 646.257 342.078 622.357 331.568 595.867C328.498 588.147 324.478 585.447 316.468 585.047C268.078 582.637 216.358 547.477 202.378 487.457C182.538 402.497 248.838 327.017 330.408 330.127C336.408 330.357 342.408 330.247 348.278 331.877C351.348 332.737 353.358 331.877 354.948 329.197C356.318 326.917 357.828 324.717 359.368 322.547C406.298 256.617 469.368 214.707 549.548 203.667C663.658 187.947 756.108 228.037 825.308 320.347C829.818 326.347 833.748 328.687 841.438 328.347C916.308 325.257 978.138 384.797 979.708 459.757C980.998 520.887 940.578 577.637 880.088 593.377C873.638 595.047 867.158 596.577 860.458 596.837C856.888 596.977 854.568 598.157 852.648 601.687C825.038 652.417 824.988 652.397 791.348 689.687C791.528 690.307 791.508 691.127 791.918 691.527C815.348 714.737 828.698 743.527 837.158 774.747C849.448 820.197 852.088 866.627 850.338 913.417C849.588 933.417 848.148 953.297 845.578 973.147C844.578 980.837 844.318 980.397 836.978 980.387C795.645 980.387 754.312 980.387 712.978 980.387C588.978 980.387 464.978 980.407 340.978 980.447C322.218 980.447 303.728 978.527 285.638 973.527C253.498 964.627 227.428 946.207 205.188 921.897C179.588 893.897 159.498 862.117 141.558 828.977C109.258 769.407 89.89 703.692 84.7183 636.127C83.0783 615.477 83.2183 594.867 83.2283 574.217C83.2283 563.217 78.6283 556.447 70.0283 554.757C61.0283 553.007 52.7283 557.937 48.5383 567.287C46.5383 571.687 46.4683 576.287 46.2283 580.977C44.5783 612.047 47.0583 642.977 51.7183 673.577C64.9183 760.307 96.6183 839.807 148.498 910.637C233.425 1026.64 346.498 1098.97 487.718 1127.64C539.288 1138.06 591.478 1139.7 643.938 1134.85C866.398 1114.27 1058.76 955.377 1118.25 733.547C1135.68 668.547 1141.41 602.467 1133.6 535.547C1113.74 365.297 1031.94 232.257 890.198 136.447C822.738 90.8467 747.718 63.9667 666.998 52.3467C478.398 25.1267 285.238 101.377 166.148 250.557C161.218 256.737 161.218 256.737 165.928 263.767C174.34 276.152 179.568 290.42 181.152 305.308C182.735 320.196 180.625 335.245 175.007 349.123C169.389 363.001 160.437 375.28 148.943 384.874C137.449 394.467 123.767 401.08 109.108 404.127C61.0583 414.407 10.9583 382.637 2.01827 334.337C-4.23173 300.607 3.66825 269.857 30.8483 246.597C57.6183 223.687 88.2582 218.717 121.588 229.347C129.678 231.927 129.588 232.087 134.588 226.057C143.588 215.337 152.588 204.697 162.428 193.117C153.328 185.117 144.138 177.067 134.998 168.977C132.248 166.547 129.998 168.697 127.788 169.787C116.322 175.419 103.784 178.536 91.015 178.93C78.2459 179.324 65.5401 176.985 53.7482 172.07C41.9564 167.155 31.3508 159.777 22.6414 150.431C13.9321 141.085 7.32013 129.986 3.24825 117.877C1.58625 113.139 0.770486 108.147 0.838246 103.127C1.01825 95.4667 1.25826 87.7767 0.788258 80.1267C0.118258 69.0667 3.34825 59.1267 8.18825 49.4667C18.4715 28.8909 36.2853 13.0667 57.9299 5.28073C79.5745 -2.50528 103.387 -1.65476 124.421 7.65563C145.454 16.966 162.094 34.0208 170.883 55.2778C179.672 76.5349 179.935 100.361 171.618 121.807C167.998 131.207 167.988 131.207 175.788 138.117C181.528 143.187 187.248 148.287 193.038 153.307C198.468 158.007 198.548 158.027 204.248 153.017C287.207 79.9472 389.191 31.908 498.358 14.4767C546.678 6.77674 595.198 4.55674 643.828 9.35674C792.828 24.0767 919.108 85.8167 1021.23 195.357C1097.6 277.247 1146.38 373.827 1166.71 483.887C1223.45 791.087 1034.82 1074.39 751.948 1155.09C685.17 1174.24 615.495 1181.25 546.238 1175.79C292.968 1156.11 82.2383 976.637 21.9083 729.587C13.6783 695.897 9.23825 661.587 6.58825 627.017C5.17825 608.617 6.03826 590.377 7.25826 572.217C8.82826 548.737 20.4583 530.417 42.3783 520.297C62.8483 510.837 82.7782 512.987 100.768 526.627C115.388 537.707 123.048 552.717 122.958 571.397C122.858 594.037 122.548 616.647 124.698 639.277C130.479 702.455 149.702 763.667 181.078 818.807C193.568 840.807 207.078 862.227 222.928 882.047C231.003 892.239 239.987 901.678 249.768 910.247C270.048 927.897 293.768 937.377 320.328 940.087C322.888 940.317 325.608 941.177 328.448 939.237ZM466.538 544.717C465.228 547.087 464.238 548.787 463.318 550.517C447.538 580.297 448.918 609.427 467.398 637.447C479.848 656.307 497.478 669.267 517.838 678.607C549.308 693.027 582.378 696.967 616.388 691.967C647.008 687.457 674.798 676.117 697.618 654.517C728.148 625.627 737.378 583.757 713.358 545.827C713.189 545.539 713.002 545.261 712.798 544.997C710.428 542.087 710.078 539.837 714.388 538.377C716.879 537.432 719.276 536.257 721.548 534.867C754.438 516.217 773.018 488.127 775.548 450.387C777.166 428.276 771.554 406.238 759.558 387.593C747.562 368.949 729.831 354.708 709.038 347.017C666.548 331.137 619.268 345.127 591.038 381.857C589.498 383.857 588.598 386.497 585.958 387.527C552.138 343.347 505.108 337.177 468.898 348.847C430.738 361.137 401.768 397.187 399.188 436.847C395.868 488.127 419.698 523.127 466.538 544.717ZM131.738 314.417C131.662 303.629 127.338 293.307 119.702 285.686C112.067 278.066 101.736 273.762 90.9482 273.707C79.9934 273.709 69.4834 278.041 61.7082 285.758C53.933 293.475 49.5227 303.952 49.4383 314.907C49.4383 337.507 68.2482 356.197 90.9482 356.197C113.648 356.197 131.978 337.317 131.738 314.417ZM127.738 89.6667C127.84 79.1801 123.772 69.0824 116.429 61.595C109.087 54.1076 99.0699 49.8438 88.5832 49.7417C78.0966 49.6396 67.9989 53.7075 60.5115 61.0505C53.0241 68.3935 48.7604 78.4101 48.6583 88.8967C48.4183 111.517 65.4183 128.947 87.8083 129.067C110.438 129.177 127.708 112.127 127.758 89.6667H127.738ZM321.308 494.847H324.308C337.488 494.847 335.018 493.507 334.848 483.787C334.448 462.037 335.848 440.537 345.218 420.377C346.728 417.127 345.648 415.637 342.698 414.297C337.253 411.766 331.475 410.026 325.538 409.127C310.848 406.997 298.378 411.127 289.738 423.677C281.598 435.537 277.588 448.677 278.888 463.247C280.078 476.457 286.758 485.547 298.888 490.667C305.985 493.621 313.624 495.045 321.308 494.847ZM848.678 473.507C848.678 477.507 848.798 481.507 848.678 485.507C848.548 488.707 849.588 490.507 853.038 490.697C864.458 491.347 875.698 490.897 886.188 485.637C896.188 480.637 901.958 472.637 903.378 461.527C905.378 445.947 901.378 431.747 892.468 419.057C885.468 409.117 875.578 404.347 863.298 404.687C855.498 404.907 848.298 407.207 841.158 410.187C837.668 411.647 836.828 413.307 838.528 417.007C846.728 434.917 848.198 454.127 848.678 473.507Z" fill="white"/>
<path d="M675.988 486.607C647.588 486.497 623.778 462.607 623.818 434.327C623.818 405.427 647.888 381.907 677.008 382.237C705.568 382.577 729.068 406.497 728.678 434.847C728.288 463.197 704.448 486.727 675.988 486.607Z" fill="white"/>
<path d="M504.928 382.237C515.264 382.173 525.387 385.181 534.012 390.878C542.637 396.575 549.376 404.705 553.375 414.236C557.373 423.768 558.451 434.273 556.472 444.418C554.493 454.564 549.546 463.893 542.258 471.223C534.97 478.553 525.67 483.554 515.536 485.592C505.402 487.629 494.891 486.612 485.336 482.668C475.782 478.725 467.613 472.033 461.866 463.44C456.12 454.848 453.054 444.744 453.058 434.407C453.036 427.575 454.36 420.805 456.955 414.485C459.55 408.165 463.365 402.418 468.182 397.573C472.999 392.728 478.724 388.88 485.029 386.249C491.334 383.617 498.096 382.254 504.928 382.237V382.237Z" fill="white"/>
<path d="M555.178 518.897C564.558 519.167 572.928 527.897 572.648 537.167C572.358 546.647 563.788 554.777 554.358 554.537C549.679 554.347 545.258 552.341 542.033 548.945C538.809 545.549 537.035 541.029 537.088 536.347C537.318 526.757 545.748 518.627 555.178 518.897Z" fill="white"/>
<path d="M633.408 536.567C633.41 541.253 631.584 545.756 628.318 549.118C625.052 552.479 620.603 554.434 615.918 554.567C606.458 554.687 597.988 546.447 597.848 536.977C597.718 527.707 606.198 519.047 615.538 518.927C624.878 518.807 633.298 526.967 633.408 536.567Z" fill="white"/>
</svg>
