<svg id="Camada_1" data-name="Camada 1" xmlns="http://www.w3.org/2000/svg" viewBox="0 0 4992.2 1177.5"><defs><style>.cls-1{fill:#2c2727;}.cls-2{fill:#ba3637;}</style></defs><path class="cls-1" d="M778.91,1278.11a658.27,658.27,0,0,1-1.1-74.49c1.51-38.08,6.62-75.6,20-111.58,9.14-24.66,22-47,42-64.69a17.51,17.51,0,0,0,2-2.58c-5.3-6-10.67-11.82-15.78-17.87-18.4-21.77-33.49-45.67-44-72.16-3.07-7.72-7.09-10.42-15.1-10.82-48.39-2.41-100.11-37.57-114.09-97.59C633,741.37,699.3,665.89,780.87,669c6,.23,12,.12,17.87,1.75,3.07.86,5.08,0,6.67-2.68,1.37-2.28,2.88-4.48,4.42-6.65,46.93-65.93,110-107.84,190.18-118.88,114.11-15.72,206.56,24.37,275.76,116.68,4.51,6,8.44,8.34,16.13,8,74.87-3.09,136.7,56.45,138.27,131.41,1.29,61.13-39.13,117.88-99.62,133.62-6.45,1.67-12.93,3.2-19.63,3.46-3.57.14-5.89,1.32-7.81,4.85-27.61,50.73-27.66,50.71-61.3,88,.18.62.16,1.44.57,1.84,23.43,23.21,36.78,52,45.24,83.22,12.29,45.45,14.93,91.88,13.18,138.67-.75,20-2.19,39.88-4.76,59.73-1,7.69-1.26,7.25-8.6,7.24q-62,0-124,0-186,0-372,.06c-18.76,0-37.25-1.92-55.34-6.92-32.14-8.9-58.21-27.32-80.45-51.63-25.6-28-45.69-59.78-63.63-92.92A481.72,481.72,0,0,1,535.18,975c-1.64-20.65-1.5-41.26-1.49-61.91,0-11-4.6-17.77-13.2-19.46-9-1.75-17.3,3.18-21.49,12.53-2,4.4-2.07,9-2.31,13.69-1.65,31.07.83,62,5.49,92.6,13.2,86.73,44.9,166.23,96.78,237.06q127.39,174,339.22,217c51.57,10.42,103.76,12.06,156.22,7.21,222.46-20.58,414.82-179.47,474.31-401.3,17.43-65,23.16-131.08,15.35-198-19.86-170.25-101.66-303.29-243.4-399.1-67.46-45.6-142.48-72.48-223.2-84.1C928.86,364,735.7,440.25,616.61,589.43c-4.93,6.18-4.93,6.18-.22,13.21A91.09,91.09,0,0,1,559.57,743c-48.05,10.28-98.15-21.49-107.09-69.79-6.25-33.73,1.65-64.48,28.83-87.74,26.77-22.91,57.41-27.88,90.74-17.25,8.09,2.58,8,2.74,13-3.29,9-10.72,18-21.36,27.84-32.94-9.1-8-18.29-16.05-27.43-24.14-2.75-2.43-5-.28-7.21.81a89.68,89.68,0,0,1-124.54-51.91A42.81,42.81,0,0,1,451.3,442c.18-7.66.42-15.35-.05-23-.67-11.06,2.56-21,7.4-30.66a89.46,89.46,0,0,1,163.43,72.34c-3.62,9.4-3.63,9.4,4.17,16.31,5.74,5.07,11.46,10.17,17.25,15.19,5.43,4.7,5.51,4.72,11.21-.29A584.38,584.38,0,0,1,948.82,353.35c48.32-7.7,96.84-9.92,145.47-5.12,149,14.72,275.28,76.46,377.4,186,76.37,81.89,125.15,178.47,145.48,288.53,56.74,307.2-131.89,590.5-414.76,671.2a580.46,580.46,0,0,1-205.71,20.7c-253.27-19.68-464-199.15-524.33-446.2-8.23-33.69-12.67-68-15.32-102.57-1.41-18.4-.55-36.64.67-54.8,1.57-23.48,13.2-41.8,35.12-51.92,20.47-9.46,40.4-7.31,58.39,6.33,14.62,11.08,22.28,26.09,22.19,44.77-.1,22.64-.41,45.25,1.74,67.88a445,445,0,0,0,56.38,179.53c12.49,22,26,43.42,41.85,63.24a214.89,214.89,0,0,0,26.84,28.2c20.28,17.65,44,27.13,70.56,29.84C773.35,1279.19,776.07,1280.05,778.91,1278.11ZM917,883.59c-1.31,2.37-2.3,4.07-3.22,5.8-15.78,29.78-14.4,58.91,4.08,86.93,12.45,18.86,30.08,31.82,50.44,41.16,31.47,14.42,64.54,18.36,98.55,13.36,30.62-4.51,58.41-15.85,81.23-37.45,30.53-28.89,39.76-70.76,15.74-108.69a8,8,0,0,0-.56-.83c-2.37-2.91-2.72-5.16,1.59-6.62a42.77,42.77,0,0,0,7.16-3.51c32.89-18.65,51.47-46.74,54-84.48a102.26,102.26,0,0,0-66.51-103.37c-42.49-15.88-89.77-1.89-118,34.84-1.54,2-2.44,4.64-5.08,5.67-33.82-44.18-80.85-50.35-117.06-38.68-38.16,12.29-67.13,48.34-69.71,88C846.33,827,870.16,862,917,883.59ZM582.2,653.29a41,41,0,0,0-40.79-40.71,41.52,41.52,0,0,0-41.51,41.2c0,22.6,18.81,41.29,41.51,41.29S582.44,676.19,582.2,653.29Zm-4-224.75a39.54,39.54,0,0,0-79.08-.77c-.24,22.62,16.76,40.05,39.15,40.17C560.9,468.05,578.17,451,578.22,428.54ZM771.77,833.72h3c13.18,0,10.71-1.34,10.54-11.06-.4-21.75,1-43.25,10.37-63.41,1.51-3.25.43-4.74-2.52-6.08A63.15,63.15,0,0,0,776,748c-14.69-2.13-27.16,2-35.8,14.55-8.14,11.86-12.15,25-10.85,39.57,1.19,13.21,7.87,22.3,20,27.42A54.67,54.67,0,0,0,771.77,833.72Zm527.37-21.34c0,4,.12,8,0,12-.13,3.2.91,5,4.36,5.19,11.42.65,22.66.2,33.15-5.06,10-5,15.77-13,17.19-24.11,2-15.58-2-29.78-10.91-42.47-7-9.94-16.89-14.71-29.17-14.37-7.8.22-15,2.52-22.14,5.5-3.49,1.46-4.33,3.12-2.63,6.82C1297.19,773.79,1298.66,793,1299.14,812.38Z" transform="translate(-450.46 -338.91)"/><path class="cls-1" d="M1878.74,807.83A152.24,152.24,0,0,1,1909,776.52a85.27,85.27,0,0,1,118.32,13.18,148.42,148.42,0,0,1,17.44,26.53c3.91-2.21,5.23-5.81,7.38-8.65,11.77-15.55,25-29.45,42.74-38.35,27.85-14,56.55-14.33,85.11-3.27,19.24,7.45,31.7,22.75,40.12,41.21,10.55,23.14,14.06,47.77,14.21,72.93.3,46.61.33,93.23.49,139.85,0,4.68,0,9.34-2.15,13.66a20.93,20.93,0,0,1-22.61,10.94c-9.07-2-16.1-9.61-16.33-19-.4-15.64-.27-31.3-.29-46.95,0-30,.09-60,0-89.92-.08-16.34-1.37-32.59-5.52-48.48a76.89,76.89,0,0,0-3.13-9.45c-7.66-18.64-20.87-29.62-41.72-30.1-12.75-.29-25.37.64-37.31,5.35-22.21,8.76-36.27,25.21-43.63,47.66-3.89,11.82-5.21,24-5.28,36.4q-.37,65.43-.72,130.86c0,4,.34,8-1.19,11.84-3.53,8.84-12.76,14-22.62,12.65a20,20,0,0,1-16.88-17.25,130.86,130.86,0,0,1-.65-15q-.26-65.43-.39-130.86a165.39,165.39,0,0,0-4.43-39.59c-.56-2.25-1.15-4.51-1.88-6.71-7.91-23.85-22.36-34.91-47.22-35.51a89.21,89.21,0,0,0-29.6,3.8c-29.73,9.57-45.17,31.34-51.34,60.76a115.12,115.12,0,0,0-2,23.84q.08,65.44-.12,130.88c0,2.33.1,4.67-.08,7-.84,10.45-8.25,18.18-18.31,19.22-10.65,1.1-19.49-5.15-22.43-15.67a32.75,32.75,0,0,1-.85-8.91q-.09-119.38-.15-238.77c0-14,6.26-22.15,17.73-23.78,12.58-1.79,21.43,5.39,22.25,18.11.62,9.63,1.16,19.26,1.76,28.89C1877.69,806.17,1877.94,806.42,1878.74,807.83Z" transform="translate(-450.46 -338.91)"/><path class="cls-2" d="M3812.47,1001.81c-.64,9.93-.58,19-2,27.76-2,13-12.78,19.51-24.93,15.93a20.05,20.05,0,0,1-14.2-17.46c-.23-2.65-.12-5.33-.12-8q0-166.89,0-333.79c0-2.66-.11-5.34.11-8a20.43,20.43,0,0,1,40.71.05c.21,2.65.09,5.33.09,8q0,52.47,0,104.94v10.21c4.26-.52,5.83-3.28,7.92-5.12,15.6-13.7,31.78-26.83,52.16-32.44,38.15-10.51,72.76-1.77,103.11,22.68,33.68,27.12,51.24,63.19,54.74,106,3.17,38.75-6.63,74-30.5,104.86-19,24.49-43.17,41.41-74.35,46.68-28,4.74-54.38,1.34-78.05-15.76-9.46-6.84-18.85-13.73-27.48-21.6C3817.83,1005.07,3816.2,1002.89,3812.47,1001.81Zm176.21-95.76c-.07-25.73-7.19-49.27-22.5-70.06-10.27-13.94-22.91-25.19-39.74-30.55-35.28-11.23-73.67-.74-97,36-25,39.34-21.24,95.79,7.88,132.14,34.15,42.64,99.31,41.87,131.5-3.79C3982.31,950.69,3988.67,929.36,3988.68,906.05Z" transform="translate(-450.46 -338.91)"/><path class="cls-1" d="M3212.44,920c8.29,55,71.73,110.84,145.65,72.47a84.58,84.58,0,0,0,29-24.06c8.24-10.91,29.74-10.29,35.54,6.73,2.61,7.65.76,14.46-4.18,20.53a127.45,127.45,0,0,1-23.8,22.72c-79.42,57.93-191.13,23.08-220.59-76.27-20.62-69.57,13.58-143.89,78.47-171.19,84.44-35.52,167.75,22.47,178.82,100.16,1.37,9.55,2,19.34.18,28.87-3.42,17.69-10.43,20.19-23.42,20.13-45-.22-90-.09-135-.09Zm177.17-41.19a29.61,29.61,0,0,0,0-4.13c-6.11-39.93-42.88-72-83.41-72.85-48.37-1-83,35.6-92.55,72.62a28.09,28.09,0,0,0-.36,4.36Z" transform="translate(-450.46 -338.91)"/><path class="cls-2" d="M4496.86,809.83c.94-11.78,1.73-22.64,2.7-33.48,1-11.77,7.43-18.4,17.17-18.05,10,.35,18,8.21,18.78,18.56.17,2.32.05,4.66.05,7v235.7c0,2,.08,4,0,6-.55,11-8.34,19.21-18.71,19.63-10.62.43-19.29-7.73-20-19.3-.4-7-.07-14-.15-21,0-2.23-.29-4.46-.46-6.8-3.64-.06-4.87,2.67-6.66,4.35a275,275,0,0,1-28.63,23.31c-35.45,25.46-73.45,27-111.43,8.54-48.39-23.58-74.67-64.14-79.75-117.42-4.66-48.75,11.47-90.55,47.54-123.88,26.42-24.41,58-35.89,94.16-33.38a83.29,83.29,0,0,1,41.85,14.76,287.81,287.81,0,0,1,35.46,29.15C4490.93,805.56,4492.56,808.2,4496.86,809.83Zm1.15,78.4c-.27-18.43-12.55-44.56-36.13-65.07-33.68-29.3-78.8-30.25-112.65-3-52.51,42.26-51.58,126.15,2,167.29,21.45,16.48,45.62,21.18,71.73,14.53C4465.79,991,4498,947.54,4498,888.23Z" transform="translate(-450.46 -338.91)"/><path class="cls-2" d="M5250.08,804.39c3.57-1.8,4.48-4,5.89-5.84,24.85-31.7,57.37-44,97-38.23a144.37,144.37,0,0,1,16.62,3.39c23.28,6.26,41.2,19.46,53.07,40.77,12.09,21.69,17.9,45.12,19.15,69.63,1.85,36.26.11,72.57.43,108.86.13,14.65.05,29.31,0,44-.06,8.54-4.43,14.57-11.88,18.17-7.18,3.46-14.31,2.53-20.81-2-6.24-4.39-8.64-10.81-8.68-18.18-.06-12.32-.06-24.64.07-37,.4-38.28,1.59-76.56-.85-114.81a126.16,126.16,0,0,0-9.8-41.56c-6.46-15.19-17.55-24.93-33.61-28.52-31.09-7-59.66-2.36-83.69,20-14.86,13.82-22.48,31.05-22.47,51.51q.06,71.93,0,143.86c0,3,.1,6-.08,9-.68,10.9-8.37,19-18.72,19.85a20.88,20.88,0,0,1-22.31-16,37.09,37.09,0,0,1-.89-8.88q-.06-168.33,0-336.66a33.56,33.56,0,0,1,1.15-9.87c3-9.85,11.46-15.38,22.24-14.43a19.9,19.9,0,0,1,18,17.26,75.23,75.23,0,0,1,.29,10q0,54,0,107.89Z" transform="translate(-450.46 -338.91)"/><path class="cls-1" d="M3598.51,985.49c3.41-2.78,3.91-6.57,5.22-9.85q39.72-99.57,79.29-199.2c2.13-5.37,4.63-10.23,9.72-13.47,6.77-4.3,13.8-5,20.81-1.25,7.36,3.91,11,10.39,10.88,18.82,0,4.45-1.72,8.43-3.32,12.45q-58.89,147.75-117.8,295.5a239.36,239.36,0,0,1-24.28,45.73,127.35,127.35,0,0,1-31.29,32c-14,10.1-29.93,14.29-46.9,14.62-12.43.24-21.54-8.13-22.32-19.62-.74-11.11,7.83-20.87,20-21.81,20.49-1.58,35.67-11.75,47.24-28,7.74-10.92,13.42-22.94,18.24-35.38,3.6-9.3,6.67-18.82,10.71-27.92,2.51-5.66,2.27-10.22-.36-15.86C3549,978,3523.94,923.6,3498.79,869.3q-17.4-37.56-34.84-75.1a59.65,59.65,0,0,1-3.44-8.29,20.84,20.84,0,0,1,11.32-25c8.81-4,19.89-.9,25.62,7.47a61.17,61.17,0,0,1,4.51,8.88q45.89,99.11,91.75,198.23C3595.24,978.8,3596.85,982.05,3598.51,985.49Z" transform="translate(-450.46 -338.91)"/><path class="cls-1" d="M2295,899.37c.54-40.57,17.25-77.87,50.34-107.23,49.74-44.14,122-44.25,172.6-1,69.71,59.5,68.63,167.73-2.24,225.87-51.08,41.91-122.87,40.33-171.73-4.17C2311.76,983.48,2295.3,946.9,2295,899.37Zm233,9.74c.12-34.08-9.77-58.87-29.44-79.58-33.74-35.52-86.22-38.94-123.75-8.34-50.54,41.2-51.39,120-1.76,162.27,34.89,29.73,83.26,30,117.95.1C2515.32,962.64,2527.43,935.77,2528,909.11Z" transform="translate(-450.46 -338.91)"/><path class="cls-1" d="M2966.91,891.15c2.76.55,3.57-1.21,4.55-2.34,35.49-41.16,74.95-78.57,112.05-118.2,2.28-2.43,4.76-4.69,6.84-7.28a19.49,19.49,0,0,1,28.44-2.12c8.61,7.91,8.43,19.56-.64,29.17s-18.46,19.22-27.71,28.82q-29.82,30.93-59.64,61.88c-1.61,1.67-3.1,3.46-5,5.6,5.62,7.45,11.18,14.88,16.79,22.26q38.72,50.88,77.45,101.77a63.88,63.88,0,0,1,4.68,6.46c5.25,9.07,2.89,19.77-5.52,25.66a19.54,19.54,0,0,1-25.42-2.94c-2.88-3.21-5.28-6.85-7.85-10.33-28.92-39.08-57.83-78.17-87.07-117.7-8.3,5.93-14.26,14.08-22,20.11-8.39,6.54-11.12,14.33-10.7,24.93.83,21.28.26,42.62.23,63.94,0,4.31.26,8.69-1.42,12.81a19.34,19.34,0,0,1-37.07-5.31,78.77,78.77,0,0,1-.11-8V686.61a73.38,73.38,0,0,1,.13-8c1.13-10.24,9.52-17.36,19.88-17.06,10,.3,17.49,7.24,18.4,17.39.29,3.31.2,6.66.2,10q0,95.92,0,191.85C2966.45,884.3,2965.78,887.94,2966.91,891.15Z" transform="translate(-450.46 -338.91)"/><path class="cls-1" d="M2671.3,809c8.19-7.7,15.48-14.92,23.17-21.71,14.94-13.2,31.49-23.54,51.72-26.32,47.73-6.55,80.78,12.29,99.65,50.92,10.68,21.86,15.61,45.37,15.89,69.53.54,47.61.28,95.24.17,142.86,0,13.21-8.61,22.24-20.43,22.39s-20.83-9-21-22c-.27-21.64,0-43.29.08-64.93.07-29,1.1-57.94-.76-86.88-.86-13.32-3.09-26.5-8.44-38.82-7-16-17.67-28.75-35.9-31.47-24.29-3.63-48-1-69.24,12.47-18.53,11.79-28,29.7-32.45,50.69-1.94,9.18-2.32,18.47-2.32,27.81q.06,63.43,0,126.88c0,3.65.27,7.3-.71,10.92-2.61,9.57-10.86,16-20.48,15.85a21,21,0,0,1-20.11-17.57,57,57,0,0,1-.35-9q-.11-117.39-.18-234.77c0-2.67-.1-5.35.14-8,1-11.38,9.3-18.88,20.59-18.81,10.76.08,18.32,7.29,19.23,18.85C2670.37,788.13,2669.69,798.47,2671.3,809Z" transform="translate(-450.46 -338.91)"/><path class="cls-2" d="M4642.27,809.36c4.35-1.69,6-4.69,8.13-7,11.43-12.19,23.49-23.58,38.4-31.56,28.45-15.22,57.57-15,86.64-2.77,17.18,7.22,29.05,20.9,38.26,36.77,10.71,18.45,15.72,38.76,18.21,59.72,3.67,30.86,1.31,61.87,1.76,92.81.31,21,0,41.95-.1,62.93a57.14,57.14,0,0,1-.24,8,20.73,20.73,0,0,1-41.24-.88c-.52-6.28-.07-12.64-.06-19q0-57.93.12-115.87a196,196,0,0,0-4.32-42.61,80.48,80.48,0,0,0-9.65-25c-9.2-15.14-22.59-23.06-40.31-23.62-13-.41-25.9.33-38.57,3.94-26.16,7.43-42.93,24.33-51.36,49.89-4.65,14.12-5.35,28.77-5.42,43.42-.18,40.62-.06,81.24-.07,121.87,0,2.66.11,5.34-.1,8a20.28,20.28,0,0,1-19.82,18.71,20.66,20.66,0,0,1-20.9-18.79c-.18-2-.09-4-.09-6q-.12-118.87-.23-237.74a63.93,63.93,0,0,1,.31-9c1.31-9.33,8.85-16,18.42-16.59,10.22-.6,17.32,4.4,20.16,14.12,1.23,4.22,1.21,8.55,1.36,12.87C4641.82,793.49,4642,801,4642.27,809.36Z" transform="translate(-450.46 -338.91)"/><path class="cls-2" d="M4893.76,902.5c0-59,36.13-113,89.33-133.79,60.94-23.77,131.51,3.41,160.75,61.91.74,1.49,1.45,3,2.1,4.53,4.8,11.41,1.37,22.21-8.68,27.4s-22.44,1.46-28.11-9.32A113.23,113.23,0,0,0,5091.5,828c-32.42-34.57-84.51-33.25-117.09-7.33-52.32,41.62-52.55,123.23.05,164.46,44.12,34.57,107.15,21,133.06-28.88,3.56-6.85,7.67-12.66,15.35-14.53,8-1.95,15.26-.08,20.75,6.5,5.7,6.86,6.27,14.53,2.73,22.44-8.05,18-20.05,33-35.17,45.43-55.34,45.57-135.4,37.59-182.52-18.08A145.24,145.24,0,0,1,4893.76,902.5Z" transform="translate(-450.46 -338.91)"/><path class="cls-2" d="M4133.79,807.82c2-3.37,3.89-6.8,6-10.1a87.67,87.67,0,0,1,35-31.88c22.18-11.07,44.73-8.41,66.63.71,14.76,6.14,14,27.6,3.22,36.2-5.36,4.29-11.3,3.41-17.11,1.79-4.45-1.25-8.54-3.91-13-4.92-26.05-5.87-61.07,2.45-74.73,36.64a109.61,109.61,0,0,0-7.6,40.94q0,70.39,0,140.79c0,3,.06,6-.09,9-.68,12.87-7.73,20-19.84,20.29-12.26.25-19.85-6.46-21.28-19a78.85,78.85,0,0,1-.25-9q0-114.82,0-229.65c0-4.32-.1-8.65.93-12.91,2.29-9.41,12-17.14,21-16.81,9.3.35,16.12,7.67,17.31,18.71q.81,7.44,1.39,14.9c.36,4.62.59,9.24.88,13.87Z" transform="translate(-450.46 -338.91)"/><path class="cls-1" d="M1126.45,825.48c-28.4-.11-52.21-24-52.17-52.28,0-28.9,24.07-52.42,53.19-52.09,28.56.34,52.06,24.26,51.67,52.61S1154.91,825.6,1126.45,825.48Z" transform="translate(-450.46 -338.91)"/><path class="cls-1" d="M955.39,721.11a52.19,52.19,0,1,1-51.87,52.17A52,52,0,0,1,955.39,721.11Z" transform="translate(-450.46 -338.91)"/><path class="cls-1" d="M1005.64,857.77c9.38.27,17.75,9,17.47,18.27-.29,9.48-8.86,17.61-18.29,17.37a18,18,0,0,1-17.27-18.19C987.78,865.63,996.21,857.5,1005.64,857.77Z" transform="translate(-450.46 -338.91)"/><path class="cls-1" d="M1083.87,875.44a18,18,0,0,1-17.49,18c-9.46.12-17.93-8.12-18.07-17.59-.13-9.27,8.35-17.93,17.69-18.05S1083.76,865.84,1083.87,875.44Z" transform="translate(-450.46 -338.91)"/></svg>