<svg xmlns="http://www.w3.org/2000/svg" shape-rendering="geometricPrecision" text-rendering="geometricPrecision" image-rendering="optimizeQuality" fill-rule="evenodd" clip-rule="evenodd" viewBox="0 0 423 511.96"><path fill="#4D4D4D" fill-rule="nonzero" d="M211.5 0c58.4 0 111.28 23.68 149.55 61.95C399.32 100.22 423 153.1 423 211.5c0 58.4-23.68 111.28-61.95 149.55C322.78 399.32 269.9 423 211.5 423c-58.39 0-111.28-23.68-149.55-61.95C23.68 322.78 0 269.89 0 211.5c0-58.4 23.68-111.28 61.95-149.55C100.22 23.68 153.1 0 211.5 0z"/><path fill="#fff" fill-rule="nonzero" d="M211.5 16.18c53.92 0 102.77 21.87 138.11 57.21l.9.98c34.79 35.26 56.3 83.7 56.3 137.13 0 53.93-21.87 102.77-57.21 138.1l-.98.91c-35.29 34.81-83.74 56.31-137.12 56.31-53.86 0-102.7-21.89-138.05-57.25-35.38-35.3-57.26-84.14-57.26-138.07 0-53.94 21.86-102.78 57.2-138.11 35.34-35.34 84.18-57.21 138.11-57.21z"/><path fill="#009B3A" fill-rule="nonzero" d="M211.5 32.71c98.74 0 178.79 80.04 178.79 178.79 0 98.74-80.05 178.79-178.79 178.79S32.72 310.24 32.72 211.5c0-98.75 80.04-178.79 178.78-178.79z"/><path fill="#FEDF00" fill-rule="nonzero" d="m49.06 195.05 162.48 103.71 162.47-103.71-162.47-103.7z"/><path fill="#002776" fill-rule="nonzero" d="M211.54 126.54c37.84 0 68.51 30.67 68.51 68.51s-30.67 68.52-68.51 68.52-68.52-30.68-68.52-68.52c0-37.84 30.68-68.51 68.52-68.51z"/><path fill="#fff" fill-rule="nonzero" d="M148.87 167.38c7.66-1.11 15.51-1.68 23.51-1.68 40.76 0 78.03 14.68 106.97 38.95-.48 3.76-1.32 7.37-2.43 10.85-27.68-24.9-64.35-40.06-104.54-40.06-9.25 0-18.37.83-27.2 2.36.97-3.61 2.23-7.09 3.69-10.42z"/><path fill="#009B3A" d="M152.97 173.84c.98-.14 1.61-1.11 1.46-2.22-.14-1.11-1.04-1.95-1.95-1.81-.9.13-1.59 1.11-1.45 2.23.13 1.11.97 1.87 1.94 1.8zm.14 1.18c1.6-.21 2.79-1.81 2.5-3.61-.21-1.81-1.66-3.06-3.34-2.85-1.59.2-2.71 1.8-2.5 3.61.28 1.74 1.74 3.06 3.34 2.85zm6.27-4.31 2.5-.14c.48-.06.83-.42.76-.9 0-.49-.41-.84-.91-.77l-2.5.2.15 1.61zm-.98 3.76 1.17-.08-.13-2.43 2.58-.21c1.11-.07 2.02-1.04 1.87-2.15-.06-1.11-1.04-1.95-2.16-1.88l-3.67.27.34 6.48z"/><path fill="#009B3A" fill-rule="nonzero" d="M163.96 174.05c-.07-.9-.21-3-1.6-2.85l-1.8.14c2.01-.14 2.15 1.87 2.29 2.85l1.11-.14z"/><path fill="#009B3A" d="M167.86 172.66h1.74c.96 0 1.74-.83 1.74-1.81v-.56c0-.98-.84-1.73-1.81-1.73l-1.82.06.15 4.04zm-1.18 1.25 3.06-.07c1.53-.06 2.77-1.32 2.77-2.85v-.9c0-1.53-1.32-2.79-2.85-2.79l-3.06.08.08 6.53z"/><path fill="#009B3A" fill-rule="nonzero" d="m174.95 173.84 5.91.21v-1.18l-4.72-.21.06-1.67 3.69.14.07-1.11-3.76-.14.07-1.32 4.46.2.07-1.25-5.57-.21zm8.28.35 1.11.13.42-4.51.9 4.58 1.05.14 1.66-4.38-.42 4.45 1.11.08.63-6.48-1.66-.13-1.67 4.31-.91-4.52-1.59-.14zm13.57 1.52 4.79.84.2-1.11-3.75-.63.29-1.45 2.98.48.21-1.05-2.98-.55.13-1.04 3.62.63.21-1.12-4.74-.77z"/><path fill="#009B3A" d="m211.25 174.95 2.44.63c.42.07.91-.14 1.04-.63.08-.42-.13-.9-.62-1.04l-2.44-.63-.42 1.67zm-2.08 3.21 1.18.27.63-2.36 2.51.62c1.11.28 2.23-.35 2.5-1.46.27-1.11-.35-2.23-1.47-2.5l-3.61-.97-1.74 6.4zm10.22-.98 2.37.77c.42.13.9-.08 1.05-.56a.82.82 0 0 0-.57-1.05l-2.35-.76-.5 1.6zm-2.22 3.12 1.19.36.76-2.3 2.5.77c1.04.35 2.23-.28 2.57-1.33.36-1.04-.27-2.22-1.32-2.57l-3.54-1.11-2.16 6.18z"/><path fill="#009B3A" fill-rule="nonzero" d="M222.45 181.98c.29-.9.91-2.85-.42-3.27l-1.66-.55c1.95.61 1.32 2.56 1.05 3.47l1.03.35z"/><path fill="#009B3A" d="M228.22 182.74c.92.35 1.95-.28 2.31-1.32.41-1.04 0-2.23-.91-2.5-.9-.36-1.95.27-2.3 1.32-.42 1.05 0 2.16.9 2.5zm-.4 1.11c1.53.56 3.26-.34 3.88-2.02.63-1.66-.06-3.54-1.59-4.09-1.53-.56-3.27.34-3.9 2.01-.63 1.74.08 3.55 1.61 4.1zm8.14 2.03c.9.34 1.93-.15 2.43-1.19l1.11.49c-.69 1.67-2.51 2.44-3.96 1.81-1.53-.63-2.16-2.51-1.4-4.17.69-1.68 2.51-2.52 3.96-1.81 1.19.48 1.82 1.73 1.68 3.05l-1.18-.55c-.08-.63-.42-1.18-.98-1.39-.84-.42-1.95.13-2.37 1.18-.49 1.05-.2 2.16.71 2.58z"/><path fill="#009B3A" fill-rule="nonzero" d="m237.2 184.2 2.3.98-.42.83-2.22-.97z"/><path fill="#009B3A" fill-rule="nonzero" d="m238.6 184.77.9.41-1.32 2.99-.9-.42z"/><path fill="#009B3A" d="m243.05 186.43 2.22 1.11c.42.21.9.08 1.11-.34.21-.42.07-.92-.42-1.11l-2.22-1.12-.69 1.46zm-2.71 2.72 1.11.55 1.03-2.16 2.31 1.19c1.04.48 2.22.07 2.77-.9.5-1.05.08-2.24-.9-2.79l-3.34-1.67-2.98 5.78z"/><path fill="#009B3A" fill-rule="nonzero" d="M245.34 191.65c.42-.84 1.32-2.65.07-3.27l-1.6-.76c1.81.9.9 2.77.49 3.54l1.04.49zm2.43 1.25 5.08 2.92.62-1.05-4.17-2.36.84-1.46 3.27 1.81.48-.97-3.19-1.82.62-1.11 3.89 2.16.63-1.05-4.86-2.71zm9.54 3.2c-.36.56 0 1.17.76 1.67.77.49 1.32.49 1.53.13.69-1.11-3.4-2.77-2.16-4.72 1.11-1.68 2.99-.36 3.69.06.69.42 1.8 1.6.97 2.92l-1.18-.76c.35-.63-.07-1.17-.69-1.53-.63-.35-1.12-.56-1.47 0-.63.9 3.41 2.64 2.22 4.59-.9 1.46-2.49.84-3.61.14-.9-.56-2.22-1.94-1.38-3.34l1.32.84zm6.95 4.65c-.34.57-.07 1.19.69 1.68.77.55 1.32.55 1.53.21.77-1.11-3.26-2.92-1.87-4.8 1.18-1.6 2.99-.21 3.69.27.69.5 1.74 1.74.82 3l-1.18-.84c.42-.55 0-1.11-.55-1.6-.56-.41-1.04-.63-1.46-.06-.69.82 3.27 2.77 1.95 4.66-.98 1.38-2.58.69-3.55-.08-.9-.62-2.16-2.08-1.19-3.4l1.12.96z"/><path fill="#009B3A" d="M271.63 207.3c.76.54 1.95.35 2.65-.57.69-.9.69-2.08-.08-2.64-.69-.61-1.94-.34-2.57.56-.77.84-.77 2.08 0 2.65zm-.77.96c1.26 1.05 3.21.71 4.32-.69 1.11-1.39.97-3.34-.28-4.38s-3.2-.7-4.31.7c-1.11 1.39-.97 3.34.27 4.37z"/><path fill="#fff" fill-rule="nonzero" d="m155.61 179.82-.9 2.79 1.4.48z"/><path fill="#fff" fill-rule="nonzero" d="m155.61 179.82.92 2.79-1.4.48z"/><path fill="#fff" fill-rule="nonzero" d="M158.4 181.83h-2.92v1.47z"/><path fill="#fff" fill-rule="nonzero" d="m158.4 181.83-2.37 1.75-.9-1.18z"/><path fill="#fff" fill-rule="nonzero" d="m152.84 181.83 2.36 1.75.83-1.18z"/><path fill="#fff" fill-rule="nonzero" d="M152.84 181.83h2.91v1.47z"/><path fill="#fff" fill-rule="nonzero" d="m157.35 185.11-.9-2.78-1.39.49z"/><path fill="#fff" fill-rule="nonzero" d="m157.35 185.11-2.36-1.67.83-1.25z"/><path fill="#fff" fill-rule="nonzero" d="m153.88 185.11 2.36-1.67-.84-1.25z"/><path fill="#fff" fill-rule="nonzero" d="m153.88 185.11.91-2.78 1.38.49zm7.79 23.51-.91 2.78 1.39.49z"/><path fill="#fff" fill-rule="nonzero" d="m161.67 208.62.9 2.78-1.39.49z"/><path fill="#fff" fill-rule="nonzero" d="M164.45 210.63h-2.93v1.47z"/><path fill="#fff" fill-rule="nonzero" d="m164.45 210.63-2.36 1.74-.84-1.18z"/><path fill="#fff" fill-rule="nonzero" d="m158.88 210.63 2.37 1.74.9-1.18z"/><path fill="#fff" fill-rule="nonzero" d="M158.88 210.63h2.93v1.47z"/><path fill="#fff" fill-rule="nonzero" d="m163.41 213.9-.91-2.78-1.4.49z"/><path fill="#fff" fill-rule="nonzero" d="m163.41 213.9-2.37-1.67.84-1.24z"/><path fill="#fff" fill-rule="nonzero" d="m159.93 213.9 2.37-1.67-.84-1.24z"/><path fill="#fff" fill-rule="nonzero" d="m159.93 213.9.9-2.78 1.39.49zm-6.68 1.39-.69 2.3 1.11.34z"/><path fill="#fff" fill-rule="nonzero" d="m153.25 215.29.76 2.3-1.11.34z"/><path fill="#fff" fill-rule="nonzero" d="M155.61 216.96h-2.43v1.18z"/><path fill="#fff" fill-rule="nonzero" d="m155.61 216.96-2.01 1.39-.7-.97z"/><path fill="#fff" fill-rule="nonzero" d="m150.95 216.96 2.02 1.39.7-.97z"/><path fill="#fff" fill-rule="nonzero" d="M150.95 216.96h2.44v1.18z"/><path fill="#fff" fill-rule="nonzero" d="m154.71 219.67-.76-2.35-1.19.4z"/><path fill="#fff" fill-rule="nonzero" d="m154.71 219.67-1.95-1.45.7-.98z"/><path fill="#fff" fill-rule="nonzero" d="m151.85 219.67 1.95-1.45-.69-.98z"/><path fill="#fff" fill-rule="nonzero" d="m151.85 219.67.78-2.35 1.11.4zm16.57-13.7-.5 1.33.71.2z"/><path fill="#fff" fill-rule="nonzero" d="m168.42 205.97.42 1.33-.71.2z"/><path fill="#fff" fill-rule="nonzero" d="M169.74 206.94h-1.4v.71z"/><path fill="#fff" fill-rule="nonzero" d="m169.74 206.94-1.19.84-.34-.55z"/><path fill="#fff" fill-rule="nonzero" d="m167.02 206.94 1.19.84.42-.55z"/><path fill="#fff" fill-rule="nonzero" d="M167.02 206.94h1.46v.71z"/><path fill="#fff" fill-rule="nonzero" d="m169.18 208.47-.42-1.32-.63.21z"/><path fill="#fff" fill-rule="nonzero" d="m169.18 208.47-1.11-.82.41-.56z"/><path fill="#fff" fill-rule="nonzero" d="m167.58 208.47 1.11-.82-.42-.56z"/><path fill="#fff" fill-rule="nonzero" d="m167.58 208.47.42-1.32.63.21zm8.35 7.45-.77 2.3 1.19.42z"/><path fill="#fff" fill-rule="nonzero" d="m175.93 215.92.76 2.3-1.18.42z"/><path fill="#fff" fill-rule="nonzero" d="M178.3 217.59h-2.52v1.26z"/><path fill="#fff" fill-rule="nonzero" d="m178.3 217.59-2.03 1.45-.69-.96z"/><path fill="#fff" fill-rule="nonzero" d="m173.63 217.59 1.95 1.45.69-.96z"/><path fill="#fff" fill-rule="nonzero" d="M173.63 217.59h2.43v1.26z"/><path fill="#fff" fill-rule="nonzero" d="m177.38 220.37-.76-2.36-1.18.34z"/><path fill="#fff" fill-rule="nonzero" d="m177.38 220.37-2.01-1.46.77-.98z"/><path fill="#fff" fill-rule="nonzero" d="m174.53 220.37 1.95-1.46-.7-.98z"/><path fill="#fff" fill-rule="nonzero" d="m174.53 220.37.7-2.36 1.18.34zm-.62 2.85-.62 1.88.9.28z"/><path fill="#fff" fill-rule="nonzero" d="m173.91 223.22.55 1.88-.9.28z"/><path fill="#fff" fill-rule="nonzero" d="M175.72 224.54h-1.95v.98z"/><path fill="#fff" fill-rule="nonzero" d="m175.72 224.54-1.53 1.19-.63-.84z"/><path fill="#fff" fill-rule="nonzero" d="m172.03 224.54 1.6 1.19.56-.84z"/><path fill="#fff" fill-rule="nonzero" d="M172.03 224.54h1.95v.98z"/><path fill="#fff" fill-rule="nonzero" d="m175.03 226.78-.63-1.89-.9.28z"/><path fill="#fff" fill-rule="nonzero" d="m175.03 226.78-1.61-1.19.62-.76z"/><path fill="#fff" fill-rule="nonzero" d="m172.72 226.78 1.61-1.19-.63-.76z"/><path fill="#fff" fill-rule="nonzero" d="m172.72 226.78.63-1.89.9.28zm60.1-55.93-.91 2.78 1.4.49z"/><path fill="#fff" fill-rule="nonzero" d="m232.82 170.85.83 2.78-1.38.49z"/><path fill="#fff" fill-rule="nonzero" d="M235.6 172.94h-2.99v1.45z"/><path fill="#fff" fill-rule="nonzero" d="m235.6 172.94-2.43 1.66-.84-1.18z"/><path fill="#fff" fill-rule="nonzero" d="m229.96 172.94 2.44 1.66.83-1.18z"/><path fill="#fff" fill-rule="nonzero" d="M229.96 172.94h3v1.45z"/><path fill="#fff" fill-rule="nonzero" d="m234.49 176.21-.9-2.79-1.39.42z"/><path fill="#fff" fill-rule="nonzero" d="m234.49 176.21-2.37-1.74.9-1.19z"/><path fill="#fff" fill-rule="nonzero" d="m231.08 176.21 2.36-1.74-.9-1.19z"/><path fill="#fff" fill-rule="nonzero" d="m231.08 176.21.91-2.79 1.39.42zm28.45 39.98-.9 2.79 1.39.42z"/><path fill="#fff" fill-rule="nonzero" d="m259.53 216.19.9 2.79-1.38.42z"/><path fill="#fff" fill-rule="nonzero" d="M262.31 218.22h-2.92v1.45z"/><path fill="#fff" fill-rule="nonzero" d="m262.31 218.22-2.36 1.66-.84-1.11z"/><path fill="#fff" fill-rule="nonzero" d="m256.75 218.22 2.36 1.66.84-1.11z"/><path fill="#fff" fill-rule="nonzero" d="M256.75 218.22h2.91v1.45z"/><path fill="#fff" fill-rule="nonzero" d="m261.27 221.49-.9-2.79-1.4.42z"/><path fill="#fff" fill-rule="nonzero" d="m261.27 221.49-2.37-1.74.84-1.19z"/><path fill="#fff" fill-rule="nonzero" d="m257.79 221.49 2.37-1.74-.84-1.19z"/><path fill="#fff" fill-rule="nonzero" d="m257.79 221.49.9-2.79 1.39.42zm11.27-3.69-.63 1.87.9.29z"/><path fill="#fff" fill-rule="nonzero" d="m269.06 217.8.56 1.87-.9.29z"/><path fill="#fff" fill-rule="nonzero" d="M270.86 219.12h-1.95v.97z"/><path fill="#fff" fill-rule="nonzero" d="m270.86 219.12-1.53 1.18-.61-.76z"/><path fill="#fff" fill-rule="nonzero" d="m267.19 219.12 1.59 1.18.55-.76z"/><path fill="#fff" fill-rule="nonzero" d="M267.19 219.12h1.93v.97z"/><path fill="#fff" fill-rule="nonzero" d="m270.17 221.35-.55-1.89-.98.29z"/><path fill="#fff" fill-rule="nonzero" d="m270.17 221.35-1.53-1.18.56-.77z"/><path fill="#fff" fill-rule="nonzero" d="m267.88 221.35 1.6-1.18-.57-.77z"/><path fill="#fff" fill-rule="nonzero" d="m267.88 221.35.63-1.89.9.29zm-5.57 1.38-.76 2.31 1.17.41z"/><path fill="#fff" fill-rule="nonzero" d="m262.31 222.73.77 2.31-1.18.41z"/><path fill="#fff" fill-rule="nonzero" d="M264.67 224.41h-2.5v1.18z"/><path fill="#fff" fill-rule="nonzero" d="m264.67 224.41-2.01 1.45-.69-1.03z"/><path fill="#fff" fill-rule="nonzero" d="m260.02 224.41 1.95 1.45.75-1.03z"/><path fill="#fff" fill-rule="nonzero" d="M260.02 224.41h2.43v1.18z"/><path fill="#fff" fill-rule="nonzero" d="m263.77 227.12-.76-2.29-1.19.34z"/><path fill="#fff" fill-rule="nonzero" d="m263.77 227.12-1.95-1.39.69-1.05z"/><path fill="#fff" fill-rule="nonzero" d="m260.92 227.12 1.95-1.39-.7-1.05z"/><path fill="#fff" fill-rule="nonzero" d="m260.92 227.12.77-2.29 1.11.34zm-15.09 9.94-.77 2.3 1.18.42z"/><path fill="#fff" fill-rule="nonzero" d="m245.83 237.06.76 2.3-1.18.42z"/><path fill="#fff" fill-rule="nonzero" d="M248.19 238.74h-2.5v1.25z"/><path fill="#fff" fill-rule="nonzero" d="m248.19 238.74-2.02 1.46-.69-.98z"/><path fill="#fff" fill-rule="nonzero" d="m243.53 238.74 1.95 1.46.69-.98z"/><path fill="#fff" fill-rule="nonzero" d="M243.53 238.74h2.43v1.25z"/><path fill="#fff" fill-rule="nonzero" d="m247.29 241.52-.76-2.37-1.19.42z"/><path fill="#fff" fill-rule="nonzero" d="m247.29 241.52-2.02-1.46.76-.98z"/><path fill="#fff" fill-rule="nonzero" d="m244.43 241.52 1.95-1.46-.69-.98z"/><path fill="#fff" fill-rule="nonzero" d="m244.43 241.52.7-2.37 1.19.42zm1.33 2.92-.63 1.87.9.29z"/><path fill="#fff" fill-rule="nonzero" d="m245.76 244.44.56 1.87-.91.29z"/><path fill="#fff" fill-rule="nonzero" d="M247.56 245.83h-1.94v.98z"/><path fill="#fff" fill-rule="nonzero" d="m247.56 245.83-1.53 1.11-.62-.76z"/><path fill="#fff" fill-rule="nonzero" d="m243.88 245.83 1.6 1.11.55-.76z"/><path fill="#fff" fill-rule="nonzero" d="M243.88 245.83h1.95v.98z"/><path fill="#fff" fill-rule="nonzero" d="m246.87 247.98-.55-1.88-.98.35z"/><path fill="#fff" fill-rule="nonzero" d="m246.87 247.98-1.53-1.11.56-.83z"/><path fill="#fff" fill-rule="nonzero" d="m244.58 247.98 1.59-1.11-.55-.83z"/><path fill="#fff" fill-rule="nonzero" d="m244.58 247.98.63-1.88.9.35zm8.06-15.85-.62 1.87.97.35z"/><path fill="#fff" fill-rule="nonzero" d="m252.64 232.13.63 1.87-.97.35z"/><path fill="#fff" fill-rule="nonzero" d="M254.52 233.52h-2.01v.98z"/><path fill="#fff" fill-rule="nonzero" d="m254.52 233.52-1.6 1.11-.56-.76z"/><path fill="#fff" fill-rule="nonzero" d="m250.77 233.52 1.59 1.11.56-.76z"/><path fill="#fff" fill-rule="nonzero" d="M250.77 233.52h1.95v.98z"/><path fill="#fff" fill-rule="nonzero" d="m253.76 235.67-.56-1.88-.97.35z"/><path fill="#fff" fill-rule="nonzero" d="m253.76 235.67-1.53-1.11.55-.84z"/><path fill="#fff" fill-rule="nonzero" d="m251.46 235.67 1.6-1.11-.55-.84z"/><path fill="#fff" fill-rule="nonzero" d="m251.46 235.67.63-1.88.9.35zm6.67-7.44-.76 2.3 1.18.41z"/><path fill="#fff" fill-rule="nonzero" d="m258.13 228.23.77 2.3-1.17.41z"/><path fill="#fff" fill-rule="nonzero" d="M260.43 229.9H258v1.25z"/><path fill="#fff" fill-rule="nonzero" d="m260.43 229.9-1.94 1.46-.7-.97z"/><path fill="#fff" fill-rule="nonzero" d="m255.84 229.9 1.95 1.46.7-.97z"/><path fill="#fff" fill-rule="nonzero" d="M255.84 229.9h2.44v1.25z"/><path fill="#fff" fill-rule="nonzero" d="m259.6 232.61-.76-2.29-1.19.34z"/><path fill="#fff" fill-rule="nonzero" d="m259.6 232.61-2.02-1.38.76-1.05z"/><path fill="#fff" fill-rule="nonzero" d="m256.68 232.61 2.01-1.38-.77-1.05z"/><path fill="#fff" fill-rule="nonzero" d="m256.68 232.61.76-2.29 1.19.34zm-11.13-1.8-.63 1.87.98.35z"/><path fill="#fff" fill-rule="nonzero" d="m245.55 230.81.62 1.87-.96.35z"/><path fill="#fff" fill-rule="nonzero" d="M247.43 232.19h-1.95v.98z"/><path fill="#fff" fill-rule="nonzero" d="m247.43 232.19-1.6 1.19-.56-.83z"/><path fill="#fff" fill-rule="nonzero" d="m243.68 232.19 1.59 1.19.56-.83z"/><path fill="#fff" fill-rule="nonzero" d="M243.68 232.19h2.01v.98z"/><path fill="#fff" fill-rule="nonzero" d="m246.74 234.35-.63-1.8-.9.27z"/><path fill="#fff" fill-rule="nonzero" d="m246.74 234.35-1.61-1.11.56-.77z"/><path fill="#fff" fill-rule="nonzero" d="m244.43 234.35 1.53-1.11-.55-.77z"/><path fill="#fff" fill-rule="nonzero" d="m244.43 234.35.57-1.8.96.27zm-58.98-38.95-.76 2.29 1.18.42z"/><path fill="#fff" fill-rule="nonzero" d="m185.45 195.4.78 2.29-1.2.42z"/><path fill="#fff" fill-rule="nonzero" d="M187.74 197.08h-2.43v1.24z"/><path fill="#fff" fill-rule="nonzero" d="m187.74 197.08-1.93 1.45-.78-.97z"/><path fill="#fff" fill-rule="nonzero" d="m183.09 197.08 2.01 1.45.71-.97z"/><path fill="#fff" fill-rule="nonzero" d="M183.09 197.08h2.51v1.24z"/><path fill="#fff" fill-rule="nonzero" d="m186.84 199.85-.69-2.37-1.18.42z"/><path fill="#fff" fill-rule="nonzero" d="m186.84 199.85-1.94-1.45.7-.98z"/><path fill="#fff" fill-rule="nonzero" d="m183.99 199.85 2.03-1.45-.78-.98z"/><path fill="#fff" fill-rule="nonzero" d="m183.99 199.85.77-2.37 1.18.42zm46.18-10.22-.61 1.87.97.29z"/><path fill="#fff" fill-rule="nonzero" d="m230.17 189.63.63 1.87-.97.29z"/><path fill="#fff" fill-rule="nonzero" d="M232.06 191.02h-1.95v.97z"/><path fill="#fff" fill-rule="nonzero" d="m232.06 191.02-1.6 1.11-.56-.76z"/><path fill="#fff" fill-rule="nonzero" d="m228.3 191.02 1.6 1.11.56-.76z"/><path fill="#fff" fill-rule="nonzero" d="M228.3 191.02h1.95v.97z"/><path fill="#fff" fill-rule="nonzero" d="m231.28 193.18-.54-1.81-.91.28z"/><path fill="#fff" fill-rule="nonzero" d="m231.28 193.18-1.53-1.11.57-.84z"/><path fill="#fff" fill-rule="nonzero" d="m229.06 193.18 1.53-1.11-.55-.84z"/><path fill="#fff" fill-rule="nonzero" d="m229.06 193.18.56-1.81.97.28zm-17.52 29.7-.9 2.77 1.39.5z"/><path fill="#fff" fill-rule="nonzero" d="m211.54 222.88.9 2.77-1.4.5z"/><path fill="#fff" fill-rule="nonzero" d="M214.32 224.89h-2.92v1.47z"/><path fill="#fff" fill-rule="nonzero" d="m214.32 224.89-2.36 1.74-.84-1.18z"/><path fill="#fff" fill-rule="nonzero" d="m208.76 224.89 2.36 1.74.84-1.18z"/><path fill="#fff" fill-rule="nonzero" d="M208.76 224.89h2.91v1.47z"/><path fill="#fff" fill-rule="nonzero" d="m213.28 228.16-.91-2.78-1.39.48z"/><path fill="#fff" fill-rule="nonzero" d="m213.28 228.16-2.37-1.67.84-1.24z"/><path fill="#fff" fill-rule="nonzero" d="m209.8 228.16 2.37-1.67-.84-1.24z"/><path fill="#fff" fill-rule="nonzero" d="m209.8 228.16.9-2.78 1.39.48zm9.67-18.43-.77 2.37 1.19.34z"/><path fill="#fff" fill-rule="nonzero" d="m219.47 209.73.76 2.37-1.18.34z"/><path fill="#fff" fill-rule="nonzero" d="M221.76 211.47h-2.43v1.18z"/><path fill="#fff" fill-rule="nonzero" d="m221.76 211.47-1.95 1.39-.76-.97z"/><path fill="#fff" fill-rule="nonzero" d="m217.17 211.47 1.95 1.39.69-.97z"/><path fill="#fff" fill-rule="nonzero" d="M217.17 211.47h2.43v1.18z"/><path fill="#fff" fill-rule="nonzero" d="m220.92 214.18-.76-2.29-1.19.34z"/><path fill="#fff" fill-rule="nonzero" d="m220.92 214.18-2.01-1.46.69-.98z"/><path fill="#fff" fill-rule="nonzero" d="m218 214.18 2.02-1.46-.76-.98z"/><path fill="#fff" fill-rule="nonzero" d="m218 214.18.78-2.29 1.17.34zm-6.46-10.57-.77 2.3 1.19.42z"/><path fill="#fff" fill-rule="nonzero" d="m211.54 203.61.76 2.3-1.18.42z"/><path fill="#fff" fill-rule="nonzero" d="M213.83 205.28h-2.43v1.26z"/><path fill="#fff" fill-rule="nonzero" d="m213.83 205.28-1.95 1.45-.69-.96z"/><path fill="#fff" fill-rule="nonzero" d="m209.24 205.28 1.95 1.45.69-.96z"/><path fill="#fff" fill-rule="nonzero" d="M209.24 205.28h2.43v1.26z"/><path fill="#fff" fill-rule="nonzero" d="m212.99 208.05-.76-2.35-1.19.42z"/><path fill="#fff" fill-rule="nonzero" d="m212.99 208.05-2.01-1.45.77-.98z"/><path fill="#fff" fill-rule="nonzero" d="m210.08 208.05 2.01-1.45-.76-.98z"/><path fill="#fff" fill-rule="nonzero" d="m210.08 208.05.76-2.35 1.19.42zm-5.43 2.16-.62 1.89.97.34z"/><path fill="#fff" fill-rule="nonzero" d="m204.65 210.21.62 1.89-.96.34z"/><path fill="#fff" fill-rule="nonzero" d="M206.53 211.61h-2.01v.97z"/><path fill="#fff" fill-rule="nonzero" d="m206.53 211.61-1.6 1.11-.62-.77z"/><path fill="#fff" fill-rule="nonzero" d="m202.78 211.61 1.59 1.11.56-.77z"/><path fill="#fff" fill-rule="nonzero" d="M202.78 211.61h1.94v.97z"/><path fill="#fff" fill-rule="nonzero" d="m205.76 213.76-.55-1.81-.98.28z"/><path fill="#fff" fill-rule="nonzero" d="m205.76 213.76-1.53-1.11.56-.83z"/><path fill="#fff" fill-rule="nonzero" d="m203.47 213.76 1.59-1.11-.54-.83z"/><path fill="#fff" fill-rule="nonzero" d="m203.47 213.76.63-1.81.9.28zm4.59 1.82-.42 1.32.7.21z"/><path fill="#fff" fill-rule="nonzero" d="m208.06 215.58.49 1.32-.7.21z"/><path fill="#fff" fill-rule="nonzero" d="M209.38 216.55H208v.69z"/><path fill="#fff" fill-rule="nonzero" d="m209.38 216.55-1.11.77-.42-.57z"/><path fill="#fff" fill-rule="nonzero" d="m206.74 216.55 1.18.77.35-.57z"/><path fill="#fff" fill-rule="nonzero" d="M206.74 216.55h1.39v.69z"/><path fill="#fff" fill-rule="nonzero" d="m208.9 218.08-.42-1.33-.69.21z"/><path fill="#fff" fill-rule="nonzero" d="m208.9 218.08-1.11-.84.4-.55z"/><path fill="#fff" fill-rule="nonzero" d="m207.29 218.08 1.11-.84-.4-.55z"/><path fill="#fff" fill-rule="nonzero" d="m207.29 218.08.42-1.33.63.21zm24.77 20.66-.78 2.36 1.19.34z"/><path fill="#fff" fill-rule="nonzero" d="m232.06 238.74.76 2.36-1.18.34z"/><path fill="#fff" fill-rule="nonzero" d="M234.35 240.4h-2.44v1.25z"/><path fill="#fff" fill-rule="nonzero" d="m234.35 240.4-1.95 1.46-.76-.97z"/><path fill="#fff" fill-rule="nonzero" d="m229.69 240.4 2.01 1.46.7-.97z"/><path fill="#fff" fill-rule="nonzero" d="M229.69 240.4h2.51v1.25z"/><path fill="#fff" fill-rule="nonzero" d="m233.44 243.18-.69-2.37-1.18.42z"/><path fill="#fff" fill-rule="nonzero" d="m233.44 243.18-1.95-1.46.71-.97z"/><path fill="#fff" fill-rule="nonzero" d="m230.59 243.18 2.02-1.46-.76-.97z"/><path fill="#fff" fill-rule="nonzero" d="m230.59 243.18.77-2.37 1.18.42zm7.3-10.01-.61 1.88.97.27z"/><path fill="#fff" fill-rule="nonzero" d="m237.89 233.17.63 1.88-.9.27z"/><path fill="#fff" fill-rule="nonzero" d="M239.78 234.5h-1.95v1.03z"/><path fill="#fff" fill-rule="nonzero" d="m239.78 234.5-1.6 1.17-.56-.77z"/><path fill="#fff" fill-rule="nonzero" d="m236.02 234.5 1.6 1.17.63-.77z"/><path fill="#fff" fill-rule="nonzero" d="M236.02 234.5h2.02v1.03z"/><path fill="#fff" fill-rule="nonzero" d="m239.08 236.72-.63-1.88-.9.35z"/><path fill="#fff" fill-rule="nonzero" d="m239.08 236.72-1.59-1.11.55-.84z"/><path fill="#fff" fill-rule="nonzero" d="m236.78 236.72 1.53-1.11-.55-.84z"/><path fill="#fff" fill-rule="nonzero" d="m236.78 236.72.56-1.88.97.35zm-10.15-5.22-.63 1.88.98.28z"/><path fill="#fff" fill-rule="nonzero" d="m226.63 231.5.62 1.88-.96.28z"/><path fill="#fff" fill-rule="nonzero" d="M228.51 232.89h-1.95v.9z"/><path fill="#fff" fill-rule="nonzero" d="M228.51 232.89 226.9 234l-.55-.83z"/><path fill="#fff" fill-rule="nonzero" d="m224.76 232.89 1.59 1.11.55-.83z"/><path fill="#fff" fill-rule="nonzero" d="M224.76 232.89h1.95v.9z"/><path fill="#fff" fill-rule="nonzero" d="m227.74 235.05-.55-1.88-.98.35z"/><path fill="#fff" fill-rule="nonzero" d="m227.74 235.05-1.53-1.18.56-.77z"/><path fill="#fff" fill-rule="nonzero" d="m225.51 235.05 1.54-1.18-.55-.77z"/><path fill="#fff" fill-rule="nonzero" d="m225.51 235.05.57-1.88.9.35zm-41.44-6.61-.91 2.85 1.39.42z"/><path fill="#fff" fill-rule="nonzero" d="m184.07 228.44.9 2.85-1.39.42z"/><path fill="#fff" fill-rule="nonzero" d="M186.84 230.53h-2.92v1.45z"/><path fill="#fff" fill-rule="nonzero" d="m186.84 230.53-2.36 1.66-.9-1.17z"/><path fill="#fff" fill-rule="nonzero" d="m181.28 230.53 2.37 1.66.83-1.17z"/><path fill="#fff" fill-rule="nonzero" d="M181.28 230.53h2.92v1.45z"/><path fill="#fff" fill-rule="nonzero" d="m185.81 233.79-.99-2.85-1.38.49z"/><path fill="#fff" fill-rule="nonzero" d="m185.81 233.79-2.44-1.73.91-1.19z"/><path fill="#fff" fill-rule="nonzero" d="m182.33 233.79 2.36-1.73-.83-1.19z"/><path fill="#fff" fill-rule="nonzero" d="m182.33 233.79.9-2.85 1.39.49zm29.21 13.84-.29.98.42.13z"/><path fill="#fff" fill-rule="nonzero" d="m211.54 247.63.28.98-.42.13z"/><path fill="#fff" fill-rule="nonzero" d="M212.44 248.34h-.98v.48z"/><path fill="#fff" fill-rule="nonzero" d="m212.44 248.34-.77.55-.27-.36z"/><path fill="#fff" fill-rule="nonzero" d="m210.64 248.34.76.55.27-.36z"/><path fill="#fff" fill-rule="nonzero" d="M210.64 248.34h.97v.48z"/><path fill="#fff" fill-rule="nonzero" d="m212.09 249.45-.27-.92-.49.15z"/><path fill="#fff" fill-rule="nonzero" d="m212.09 249.45-.76-.56.28-.42z"/><path fill="#fff" fill-rule="nonzero" d="m210.98 249.45.77-.56-.29-.42z"/><path fill="#fff" fill-rule="nonzero" d="m210.98 249.45.27-.92.5.15z"/><path fill="#4D4D4D" fill-rule="nonzero" d="M67.3 325.03h288.4c14.71 0 24.95 11.89 26.91 26.91l20.46 133.11c0 14.71-12.2 26.91-26.91 26.91H46.84c-14.76 0-26.9-12.15-26.9-26.91L40.4 351.94c3.36-15.67 12.86-26.91 26.9-26.91z"/><path fill="#fff" d="M65.41 335.92H357.6c7.77 0 13.01 6.66 14.12 14.13l20.47 136.89c1.11 7.48-6.57 14.13-14.13 14.13H44.95c-7.55 0-15.27-6.44-14.12-14.13l20.45-136.89c1.15-7.69 6.36-14.13 14.13-14.13z"/><path fill="#333" fill-rule="nonzero" d="M128.27 400.34h-9.32v-38.35h11.41l6.21 20.49 6.21-20.49h11.42v38.35h-9.27v-24.37l-4.77 16.06h-7.17l-4.72-15.94v24.25zm50.24 0-1.21-5.73h-9.2l-1.25 5.73h-10.27l9.85-38.35h12.73l9.85 38.35h-10.5zm-8.78-13.15h5.96l-2.93-13.79-3.03 13.79zm22.26-25.2h17.63c5.86 0 8.78 2.46 8.78 7.41v23.54c0 4.93-2.92 7.4-8.78 7.4h-17.63v-38.35zm15.95 30.16v-21.98c0-.87-.49-1.31-1.49-1.31h-4v24.61h4c1 0 1.49-.44 1.49-1.32zm25.52.72h13.08v7.47H223v-38.35h23v7.46h-12.54v7.84h10.8v7.46h-10.8v8.12zm28.31-30.88h10.45v38.35h-10.45v-38.35zm32.72 0h9.57v38.35h-8.97l-8.54-20.13v20.13H277v-38.35h8.96l8.53 20.49v-20.49z"/><path fill="#002776" fill-rule="nonzero" d="M118.31 441.46v-8.7c0-1.23-.71-1.84-2.09-1.84h-6.02v12.39h6.02c1.38 0 2.09-.62 2.09-1.85zm0 22.09v-8.78c0-1.23-.71-1.85-2.09-1.85h-6.02v12.47h6.02c1.38 0 2.09-.61 2.09-1.84zm-22.5-42.25h24.59c8.19 0 12.3 3.46 12.3 10.38v6.85c0 4.86-1.35 8.01-4.02 9.46 1.56.67 2.62 1.69 3.18 3.05.55 1.37.84 3.22.84 5.56v8.03c0 6.93-4.11 10.38-12.3 10.38H95.81V421.3zm59.47 34.63v19.08h-14.64V421.3h24.85c8.19 0 12.3 3.46 12.3 10.38v13.88c0 5.3-2.41 8.57-7.2 9.79l9.86 19.66h-15.72l-8.53-19.08h-.92zm5.77-24.17h-5.77v14.22h5.77c1.39 0 2.1-.62 2.1-1.83V433.6c0-1.23-.71-1.84-2.1-1.84zm51.63 43.25-1.67-8.03h-12.89l-1.76 8.03h-14.39l13.81-53.71h17.82l13.8 53.71h-14.72zm-12.3-18.41h8.36l-4.09-19.32-4.27 19.32zm65.84-35.3v10.46l-20.16 32.8h19.57v10.45h-34.88v-10.45l20.16-32.8h-19.08V421.3h34.39zm6.7 0h14.64v53.71h-14.64V421.3zm37.64 43.26h16.64v10.45h-31.28V421.3h14.64v43.26z"/></svg>